<svg xmlns="http://www.w3.org/2000/svg" viewBox="0 0 800 500" role="img" aria-labelledby="title desc">
  <title id="title">Security systems visual</title>
  <desc id="desc">Abstract QR code and shield illustration for digital identification and laptop security systems.</desc>
  <rect width="800" height="500" rx="36" fill="#142127"/>
  <rect x="62" y="62" width="676" height="376" rx="28" fill="#1f343a"/>
  <rect x="106" y="104" width="210" height="210" rx="20" fill="#fff7ef"/>
  <rect x="132" y="130" width="42" height="42" fill="#142127"/>
  <rect x="184" y="130" width="42" height="42" fill="#142127"/>
  <rect x="236" y="130" width="42" height="42" fill="#142127"/>
  <rect x="132" y="182" width="42" height="42" fill="#142127"/>
  <rect x="236" y="182" width="42" height="42" fill="#142127"/>
  <rect x="132" y="234" width="42" height="42" fill="#142127"/>
  <rect x="184" y="234" width="42" height="42" fill="#142127"/>
  <path d="M548 112 L648 152 V236 C648 292 610 344 548 372 C486 344 448 292 448 236 V152 Z" fill="#79d1c7" opacity="0.92"/>
  <path d="M514 238 L540 264 L588 206" fill="none" stroke="#142127" stroke-width="14" stroke-linecap="round" stroke-linejoin="round"/>
  <text x="106" y="384" fill="#fff7ef" font-family="Arial, sans-serif" font-size="28" font-weight="700">Identity + Device Security</text>
  <text x="106" y="414" fill="#cce6df" font-family="Arial, sans-serif" font-size="18">QR authentication, ownership tracking, verification</text>
</svg>